<?xml version="1.0" standalone="no"?>
<!DOCTYPE svg PUBLIC "-//W3C//DTD SVG 20010904//EN"
 "http://www.w3.org/TR/2001/REC-SVG-20010904/DTD/svg10.dtd">
<svg version="1.0" xmlns="http://www.w3.org/2000/svg"
 width="512.000000pt" height="512.000000pt" viewBox="0 0 512.000000 512.000000"
 preserveAspectRatio="xMidYMid meet">
<metadata>
Created by potrace 1.11, written by Peter Selinger 2001-2013
</metadata>
<g transform="translate(0.000000,512.000000) scale(0.100000,-0.100000)"
fill="#000000" stroke="none">
<path d="M3730 3267 c0 -2 -74 -223 -166 -493 -283 -839 -304 -900 -304 -908
0 -4 19 -6 41 -4 l42 3 88 260 c48 143 155 459 238 703 l149 442 -44 0 c-24 0
-44 -1 -44 -3z"/>
<path d="M1280 3190 c0 -16 7 -20 30 -20 51 0 133 -39 183 -88 l47 -46 0 -503
c0 -607 5 -584 -123 -607 -43 -8 -62 -16 -62 -26 0 -13 34 -15 233 -18 218 -2
232 -1 232 16 0 14 -13 20 -67 29 -86 15 -102 32 -113 119 -15 110 -13 857 2
852 6 -2 201 -236 433 -519 292 -357 428 -515 443 -517 l22 -3 1 598 c0 436 3
607 12 632 17 48 56 73 122 79 45 4 55 8 55 23 0 18 -12 19 -236 19 -219 0
-235 -1 -232 -17 2 -13 16 -19 53 -23 56 -6 81 -18 110 -50 19 -21 20 -39 23
-451 2 -236 -1 -429 -5 -428 -4 0 -75 84 -158 186 -82 101 -206 253 -274 336
-68 84 -177 218 -243 300 l-120 147 -184 0 c-177 0 -184 -1 -184 -20z"/>
<path d="M1085 2954 c-93 -41 -249 -109 -345 -150 -193 -84 -375 -163 -462
-201 -57 -25 -75 -50 -54 -76 6 -8 97 -51 201 -97 105 -45 242 -105 305 -132
116 -51 161 -70 393 -172 70 -31 132 -56 137 -56 6 0 10 20 10 44 l0 43 -107
48 c-60 26 -162 71 -228 100 -66 29 -181 79 -255 112 -74 33 -170 75 -212 93
-43 19 -78 37 -78 40 0 4 107 54 238 110 130 57 291 127 357 156 66 28 156 67
200 87 l80 34 3 47 c2 25 -1 46 -5 45 -4 0 -84 -34 -178 -75z"/>
<path d="M3846 3023 c-8 -9 -7 -65 2 -80 4 -6 66 -37 137 -68 72 -31 180 -79
240 -106 61 -26 198 -87 305 -133 107 -47 196 -89 197 -93 2 -5 -16 -16 -39
-25 -24 -9 -146 -61 -273 -116 -126 -56 -306 -134 -400 -174 l-170 -74 -3 -42
c-2 -30 1 -42 10 -42 8 0 93 34 189 76 209 91 453 196 684 296 165 71 170 75
170 103 0 33 52 8 -675 325 -384 168 -366 160 -374 153z"/>
</g>
</svg>
