<?xml version="1.0" standalone="no"?>
<!DOCTYPE svg PUBLIC "-//W3C//DTD SVG 20010904//EN"
 "http://www.w3.org/TR/2001/REC-SVG-20010904/DTD/svg10.dtd">
<svg version="1.0" xmlns="http://www.w3.org/2000/svg"
 width="300.000000pt" height="300.000000pt" viewBox="0 0 300.000000 300.000000"
 preserveAspectRatio="xMidYMid meet">
<metadata>
Created by potrace 1.11, written by Peter Selinger 2001-2013
</metadata>
<g transform="translate(0.000000,300.000000) scale(0.100000,-0.100000)"
fill="#000000" stroke="none">
<path d="M0 1500 l0 -1500 1500 0 1500 0 0 1500 0 1500 -1500 0 -1500 0 0
-1500z m1078 395 l381 -150 1 -61 0 -61 -247 -98 c-137 -54 -313 -124 -393
-155 l-145 -58 -3 60 c-2 34 1 64 5 69 4 4 143 58 308 119 165 61 304 115 308
119 4 4 -134 61 -308 126 l-315 119 0 64 c0 48 3 63 14 60 7 -2 185 -70 394
-153z m1372 -902 l0 -63 -460 0 -460 0 0 63 0 62 460 0 460 0 0 -62z"/>
</g>
</svg>
