<svg height="512pt" preserveAspectRatio="xMidYMid meet" viewBox="0 0 512 512" width="512pt" xmlns="http://www.w3.org/2000/svg"><g transform="matrix(.1 0 0 -.1 0 512)"><path d="m3730 3267c0-2-74-223-166-493-283-839-304-900-304-908 0-4 19-6 41-4l42 3 88 260c48 143 155 459 238 703l149 442h-44c-24 0-44-1-44-3z"/><path d="m1280 3190c0-16 7-20 30-20 51 0 133-39 183-88l47-46v-503c0-607 5-584-123-607-43-8-62-16-62-26 0-13 34-15 233-18 218-2 232-1 232 16 0 14-13 20-67 29-86 15-102 32-113 119-15 110-13 857 2 852 6-2 201-236 433-519 292-357 428-515 443-517l22-3 1 598c0 436 3 607 12 632 17 48 56 73 122 79 45 4 55 8 55 23 0 18-12 19-236 19-219 0-235-1-232-17 2-13 16-19 53-23 56-6 81-18 110-50 19-21 20-39 23-451 2-236-1-429-5-428-4 0-75 84-158 186-82 101-206 253-274 336-68 84-177 218-243 300l-120 147h-184c-177 0-184-1-184-20z"/><path d="m1085 2954c-93-41-249-109-345-150-193-84-375-163-462-201-57-25-75-50-54-76 6-8 97-51 201-97 105-45 242-105 305-132 116-51 161-70 393-172 70-31 132-56 137-56 6 0 10 20 10 44v43l-107 48c-60 26-162 71-228 100s-181 79-255 112-170 75-212 93c-43 19-78 37-78 40 0 4 107 54 238 110 130 57 291 127 357 156 66 28 156 67 200 87l80 34 3 47c2 25-1 46-5 45-4 0-84-34-178-75z"/><path d="m3846 3023c-8-9-7-65 2-80 4-6 66-37 137-68 72-31 180-79 240-106 61-26 198-87 305-133 107-47 196-89 197-93 2-5-16-16-39-25-24-9-146-61-273-116-126-56-306-134-400-174l-170-74-3-42c-2-30 1-42 10-42 8 0 93 34 189 76 209 91 453 196 684 296 165 71 170 75 170 103 0 33 52 8-675 325-384 168-366 160-374 153z"/></g></svg>